<svg xmlns="http://www.w3.org/2000/svg" viewBox="0 0 343.7 90.46"><defs><style>.cls-1{fill:#fff;}</style></defs><g id="Layer_2" data-name="Layer 2"><g id="Layer_1-2" data-name="Layer 1"><path class="cls-1" d="M134.45,36.24a2.71,2.71,0,0,0,1.88.4,3.58,3.58,0,0,0,1.74-.81,2.42,2.42,0,0,0,.76-2.22,2.52,2.52,0,0,0-1.29-1.94,2.5,2.5,0,0,0-2.47.17,3.92,3.92,0,0,0-1.61,2,2,2,0,0,0,.1,1.28A2.17,2.17,0,0,0,134.45,36.24Z"/><path class="cls-1" d="M210.42,40.44a.69.69,0,0,0-.75-.12,104.7,104.7,0,0,0-17.4,8.84.47.47,0,0,0,.06-.15l.08-.16a5.93,5.93,0,0,0,.07-3.83,3.61,3.61,0,0,0-2.31-2.43,2.45,2.45,0,0,0,.59-1.66,2.07,2.07,0,0,0-1-1.63,10.68,10.68,0,0,0-8-1.36,18.41,18.41,0,0,0-8,3.81,16.24,16.24,0,0,0-3.67,4.07l-.11.08a12.44,12.44,0,0,1-4.66,2.25c-1.32.24-2-.52-2.16-2.27a12.3,12.3,0,0,1,.12-1.78,13.82,13.82,0,0,0,.16-2.94,2.67,2.67,0,0,0-1.14-2.2,3.27,3.27,0,0,0-3.08-.3,9.92,9.92,0,0,0-2.73,1.94c-1,.89-2,1.82-2.92,2.79.15-.25.3-.5.46-.74q.64-1,1.26-2.07a1.67,1.67,0,0,0-.07-1.92,2,2,0,0,0-1.67-.8h-.06q-1.55,0-5,2T141,44.48c-2.5,1.59-4.85,3-7.07,4.32a22.21,22.21,0,0,1-5.34,2.44c-1.34.34-1.92-.13-1.75-1.39a8.5,8.5,0,0,1,1.71-3.61,31.11,31.11,0,0,1,2.86-3.18l1.36-1.4a2,2,0,0,0,.45-2,2.24,2.24,0,0,0-1.35-1.36,1.92,1.92,0,0,0-2,.5c-.67.63-1.46,1.47-2.38,2.52-.84.47-1.76,1-2.74,1.66-1.22.79-2.62,1.63-4.21,2.54a48.12,48.12,0,0,1-5.5,2.66c-1.5.56-2.43.54-2.8-.08a4.91,4.91,0,0,1-.53-2.56,11.41,11.41,0,0,0-.15-1.68,3.39,3.39,0,0,0-.52-1.41,2.5,2.5,0,0,0-2.89-.91,10.56,10.56,0,0,0-3.43,1.89c-1.13.91-2.06,1.72-2.8,2.45l-.51.47a7.4,7.4,0,0,1-2.93,2,1,1,0,0,1-1.22-.86,12.58,12.58,0,0,1-.38-2.55,16.77,16.77,0,0,0-.69-4,3.82,3.82,0,0,0-2.62-2.61,7.43,7.43,0,0,0-5.48,1.2,33.39,33.39,0,0,0-5.94,4.61c.14-.21.28-.42.41-.65.41-.65.82-1.32,1.22-2a1.82,1.82,0,0,0,0-2,2.21,2.21,0,0,0-1.66-1,1.91,1.91,0,0,0-1.8,1l-.49.75a1.58,1.58,0,0,0-.62.29,14.55,14.55,0,0,1-9.45,3.72,9.18,9.18,0,0,1-2-.24,11.64,11.64,0,0,1-2.27-.76,5.32,5.32,0,0,0-.85-3.36,3.87,3.87,0,0,0-2.86-1.61,1.81,1.81,0,0,0-.88-.09.94.94,0,0,0-.3.07l-.2.06h-.17l-.22,0a1.51,1.51,0,0,0-.45.2A11.75,11.75,0,0,0,54.2,42a15,15,0,0,0-2.36,3.65q-6.62,5.7-12.09,9.95Q34.88,59.33,30.89,62,21.47,68.21,16,69.25T7.61,67.14q-2.9-3.16-1.85-10A43.38,43.38,0,0,1,9.4,46.52Q12,41.3,14.76,36.66A100.28,100.28,0,0,1,34.53,12.71,49.45,49.45,0,0,1,44,6.54q3.35-1.71,5-.67a4.46,4.46,0,0,1,2,3.57,12.27,12.27,0,0,1-.64,5.22,2.29,2.29,0,0,0-1.63,0A1.89,1.89,0,0,0,47.61,16l-.06.18c-.18.61-.32,1.1-.4,1.47A5.39,5.39,0,0,0,47,18.74c0,.39,0,.93,0,1.61a2.36,2.36,0,0,0,1.3,2,2.19,2.19,0,0,0,2.4-.34,14.61,14.61,0,0,0,3.33-5.3,29.94,29.94,0,0,0,2.06-8.43c.34-3.14-.17-5.45-1.51-7s-4-1.77-8-.8-9.65,4.62-16.9,11A104,104,0,0,0,9.7,36Q.6,50.94.05,59.85t5.3,13q6.3,3.24,15.76-.85t20.7-13.72c3.6-3.08,6.62-5.68,9.06-7.83,0,.19,0,.38.08.58a5.52,5.52,0,0,0,1.53,3,3.58,3.58,0,0,0,3.23.85,10.32,10.32,0,0,0,5.23-2.93,17.3,17.3,0,0,0,3.49-5.09,13.83,13.83,0,0,0,8.84-.37A28,28,0,0,0,76.71,45c-.77,1.18-1.54,2.37-2.29,3.55l-.61,1a20.37,20.37,0,0,0-2,3.49,5.58,5.58,0,0,0-.37,3.74,1.4,1.4,0,0,0,.85,1,1.45,1.45,0,0,0,1.28-.09,7.22,7.22,0,0,0,2.84-3.3c1.2-1,2.4-2.06,3.58-3.1,1.71-1.52,3.44-3,5.21-4.45a56.33,56.33,0,0,1,5.56-4c.2-.09.39.11.57.59a13.68,13.68,0,0,1,.49,2c.15.82.3,1.67.44,2.54s.32,1.85.53,2.78A4.15,4.15,0,0,0,94,52.79a3.5,3.5,0,0,0,2.74.6,7.39,7.39,0,0,0,3.69-1.55A35,35,0,0,0,103.78,49l.12-.12a19.29,19.29,0,0,1,3.32-2.68c.66-.34,1,.06,1.09,1.2s.13,2.07.2,2.78a3.28,3.28,0,0,0,.71,1.81,2.64,2.64,0,0,0,2.15.75,14.88,14.88,0,0,0,6.23-1.89,53.91,53.91,0,0,0,5.45-3.13,7.51,7.51,0,0,0-.85,4.64c.27,1.5,1.57,2.6,3.88,3.29,1.81.33,4.34-.45,7.59-2.36s6.57-4.06,10-6.48c2.18-1.53,4.16-2.87,5.94-4-.13.19-.25.38-.37.57-1,1.51-2,3-2.93,4.57l-.61,1a22.5,22.5,0,0,0-1.95,3.45,6.28,6.28,0,0,0-.52,3.74,1.23,1.23,0,0,0,.78.86,1.26,1.26,0,0,0,1.15-.07l.06,0a.17.17,0,0,0,.06-.06,1.35,1.35,0,0,0,.93-.51,94.4,94.4,0,0,1,7.58-8.65c.08-.08.43-.38,1.05-.91s1.34-1.12,2.15-1.78,1.51-1.23,2.12-1.69a4.38,4.38,0,0,1,.94-.66c0,.39-.06.82-.1,1.28a22.37,22.37,0,0,0-.13,3.68,5.75,5.75,0,0,0,1.1,3.27c1.54,1.67,3.44,2,5.7.92.57-.27,1.13-.57,1.69-.89a3.54,3.54,0,0,0,.4,2.86c.72.82,1.84,1.06,3.37.72a19.18,19.18,0,0,0,4.75-1.78,34,34,0,0,0,4-2.4A25.29,25.29,0,0,1,183,48.87a19.71,19.71,0,0,1,3.08-1.41,3.45,3.45,0,0,1,2.41-.2c.57.25.63,1,.2,2.3a18.46,18.46,0,0,1-.75,1.83l-.31.75q-7.23,4.84-13.91,10c-1.77,1.33-3.87,3-6.28,5a86.34,86.34,0,0,0-7.13,6.57,39.19,39.19,0,0,0-5.77,7.42,14.5,14.5,0,0,0-2.23,7.53,1.94,1.94,0,0,0,.37,1.07,1.69,1.69,0,0,0,.93.63,9.33,9.33,0,0,0,6.26-1A28.21,28.21,0,0,0,166,85c2-1.79,3.73-3.51,5.29-5.16.76-.81,1.46-1.53,2.09-2.15a78.67,78.67,0,0,0,16.5-22.84l3.66-2.21q4.38-2.59,8.61-5.24t8.16-5.49a1,1,0,0,0,.36-.73A.92.92,0,0,0,210.42,40.44ZM60.91,45.8A11.54,11.54,0,0,1,58.57,49a9,9,0,0,1-3.34,2.09c-.28.07-.44-.1-.47-.52a6.25,6.25,0,0,1,.13-1.52c.11-.61.24-1.16.38-1.66s.25-.81.3-.92.12-.23.17-.34l1-1A1.63,1.63,0,0,0,57.17,44,8.93,8.93,0,0,1,61,41.58h.18a1.77,1.77,0,0,0-.82,1A1.62,1.62,0,0,0,60.63,44a6.66,6.66,0,0,0,.73.85Zm121.6-.61c-1.51.9-3,1.87-4.51,2.91a6.7,6.7,0,0,1-.72.37c-.39.17-.82.34-1.28.5a4.56,4.56,0,0,1-1.22.25c-.34,0-.51-.1-.53-.36s.25-.71.79-1.37a16.37,16.37,0,0,1,3.34-3,13.22,13.22,0,0,1,4.44-2.07,6.42,6.42,0,0,1,4.49.42A32.45,32.45,0,0,0,182.51,45.19Zm-4.14,22.23a67.44,67.44,0,0,1-4.75,5.4q-2.52,2.58-5.14,5c-.6.59-1.65,1.48-3.14,2.66a53.12,53.12,0,0,1-4.42,3.17c-1.46.93-2.45,1.31-3,1.14s-.16-1.32,1.13-3.46a57.24,57.24,0,0,1,11.42-13.09A115.82,115.82,0,0,1,184.79,58,83.75,83.75,0,0,1,178.37,67.42Z"/><path class="cls-1" d="M343.27,40.23a.71.71,0,0,0-.74.05c-.62.41-1.51,1.08-2.68,2q-2.27,1.88-4.92,3.73a12.46,12.46,0,0,1-4.62,2.23c-1.31.24-2-.51-2.14-2.26a13.83,13.83,0,0,1,.14-1.75,15.19,15.19,0,0,0,.14-2.93,2.61,2.61,0,0,0-1.14-2.17,3.26,3.26,0,0,0-3.06-.31,10.72,10.72,0,0,0-2.7,1.92c-1,.9-2,1.82-2.89,2.78l.43-.71c.44-.68.86-1.38,1.26-2.09a1.61,1.61,0,0,0,0-1.81,2,2,0,0,0-1.5-.86,1.71,1.71,0,0,0-1.63.84c-.32.53-.67,1-1,1.57a52.51,52.51,0,0,1-8.5,5.2,6.09,6.09,0,0,1-4.82.11,8.54,8.54,0,0,0,.52-4.64,3.43,3.43,0,0,0-2.78-2.65,1.62,1.62,0,0,0-1.42-.43,12,12,0,0,0-8.13,6,15,15,0,0,1-4.28,2.05,5.57,5.57,0,0,1-4-.2,8.45,8.45,0,0,0,.54-4.74,3.54,3.54,0,0,0-2.84-2.72,1.66,1.66,0,0,0-1.46-.41,11.18,11.18,0,0,0-6,3.11l-.13.15q-4,2-8.08,3.57-5.78,2.26-11.67,4.18-1.71-4.43-10.32-13.75T235,22.73q.75-3.28,6.4-7.09T260,9.12q12.9-2.71,14.25-.77c.89,1.29.67,2.82-.67,4.57a2.41,2.41,0,0,0-1.87,1c-.42.54-.85,1.08-1.28,1.61a3.23,3.23,0,0,0-.62,2.68,3,3,0,0,0,1.44,2.05,2.63,2.63,0,0,0,2.7-.16q5.9-3.54,7.42-8c1-3,.57-5.45-1.33-7.45S274.78,1.94,270,2.47A112.82,112.82,0,0,0,244.62,9Q231.26,14.1,230,21.39q-1.19,5.59,8.1,15t11,14.13a21.73,21.73,0,0,0-2.29.63q-6.4,2-12.8,4.26-10.58,3.62-15.9,7.24t-5.21,7.88a5.22,5.22,0,0,0,1.79,4.37A10.78,10.78,0,0,0,220.34,77a35.58,35.58,0,0,0,12.44-1.1,45.84,45.84,0,0,0,11.63-5.06q6.66-4.08,8.78-8.78a14.78,14.78,0,0,0,1-9.66q6.07-2,12-4.42c1.19-.49,2.38-1,3.56-1.57-.07.18-.16.35-.22.54a8.16,8.16,0,0,0-.39,3.48,5.68,5.68,0,0,0,1.22,3.12,3.76,3.76,0,0,0,3.11,1.3,6.62,6.62,0,0,0,4-1.51,15.79,15.79,0,0,0,3.49-3.73,9.52,9.52,0,0,0,5.75-.34,18,18,0,0,0,2.86-1.1,6.93,6.93,0,0,0,.64,4.23,3.83,3.83,0,0,0,3.55,2A6.46,6.46,0,0,0,297.65,53a15,15,0,0,0,3.42-3.65,8.8,8.8,0,0,0,5.95,0,30.09,30.09,0,0,0,5.28-2.73L311.37,48c-.18.3-.38.61-.59.93a25,25,0,0,0-1.93,3.42,6.32,6.32,0,0,0-.51,3.73,1.16,1.16,0,0,0,.77.84,1.21,1.21,0,0,0,1.14-.08l.08,0a.09.09,0,0,1,.06-.06,1.29,1.29,0,0,0,.9-.52,96.87,96.87,0,0,1,7.51-8.58l1.06-.89c.63-.52,1.34-1.12,2.14-1.77s1.49-1.22,2.1-1.69.91-.68.94-.64c0,.4-.06.82-.1,1.26a24.51,24.51,0,0,0-.15,3.66,5.59,5.59,0,0,0,1.1,3.24,4,4,0,0,0,4.05,1.41,13,13,0,0,0,4.94-2.44,41.65,41.65,0,0,0,4.73-4.13c1.45-1.49,2.6-2.71,3.45-3.69l.44-.49a.8.8,0,0,0,.18-.72A.86.86,0,0,0,343.27,40.23ZM241,67.84q-10.24,5.94-20.35,5.51c-2.2-.53-3.28-1.44-3.24-2.76s1.2-2.82,3.51-4.53a46,46,0,0,1,6.87-4.24c2.28-1.12,4.49-2.09,6.63-2.89s4.31-1.53,6.47-2.2l1.42-.48,5-1.59,2.74-.87Q251.27,61.89,241,67.84Zm38.87-24.09a2.12,2.12,0,0,0-1.93.64,1.54,1.54,0,0,0-.08,2c.14.21.29.43.43.67l0,0a10,10,0,0,1-4.86,4c-.29.06-.45-.11-.47-.53a6.14,6.14,0,0,1,.13-1.51c.12-.6.25-1.15.39-1.66s.23-.81.28-.93a9.12,9.12,0,0,1,3.08-3.7l.88-.5a1.24,1.24,0,0,0,.18-.14c.24-.13.49-.24.75-.35l.55.1L280,42c.16.05.21.25.16.59A6.79,6.79,0,0,1,279.88,43.75ZM300,43.61a2.09,2.09,0,0,0-1.89.62,1.5,1.5,0,0,0-.06,2c.14.21.29.43.43.67a9.61,9.61,0,0,1-4.75,3.86c-.27.07-.42-.1-.45-.5a6.55,6.55,0,0,1,.13-1.49c.11-.59.24-1.13.37-1.61s.23-.79.27-.91a8.82,8.82,0,0,1,4.79-4.57l.45.08.83.16c.15,0,.21.24.16.58A6.33,6.33,0,0,1,300,43.61Z"/></g></g></svg>