<svg xmlns="http://www.w3.org/2000/svg" width="9.66" height="20.78" viewBox="0 0 9.66 20.78">
  <path id="Path_28" data-name="Path 28" d="M-144.246,64.718V60.993c.525,0,1.03-.023,1.531.007.366.022.44-.122.448-.459a23.7,23.7,0,0,1,.153-3.029,3.639,3.639,0,0,1,3.427-3.132c1.225-.083,2.458-.057,3.687-.083.218,0,.324.067.322.306q-.012,1.542,0,3.083c0,.257-.11.328-.343.326-.647-.007-1.294-.005-1.941,0a.754.754,0,0,0-.85.84c-.011.583.008,1.168-.01,1.751-.009.293.081.4.389.4.786-.019,1.573-.006,2.36-.006h.487l-.331,3.725h-2.359c-.54,0-.541,0-.541.539q0,4.625,0,9.249c0,.562,0,.562-.575.562-1.129,0-2.259-.014-3.388.008-.384.007-.5-.114-.5-.5.012-3.121.007-6.242.007-9.364,0-.5,0-.5-.506-.5Z" transform="translate(144.246 -54.297)" fill="#fff"/>
</svg>
