<svg xmlns="http://www.w3.org/2000/svg" width="23.839" height="23.846" viewBox="0 0 23.839 23.846">
  <g id="Group_37" data-name="Group 37" transform="translate(43.255 -920.714)">
    <path id="Path_60" data-name="Path 60" d="M-25.518,944.56H-37.156c-.244-.039-.49-.064-.73-.118a6.5,6.5,0,0,1-5.173-4.91c-.1-.348-.132-.712-.2-1.069V926.826c.015-.083.024-.168.045-.249a10.968,10.968,0,0,1,.5-1.852,6.374,6.374,0,0,1,6.062-3.984c3.537-.05,7.076-.015,10.614-.011a6.346,6.346,0,0,1,3.759,1.167,6.479,6.479,0,0,1,2.851,5.536q.014,5.213,0,10.426a6.336,6.336,0,0,1-.121,1.34,6.469,6.469,0,0,1-4.9,5.165C-24.795,944.461-25.16,944.5-25.518,944.56Zm-5.8-21.719q-2.595,0-5.19,0a4.72,4.72,0,0,0-1.6.242,4.454,4.454,0,0,0-3.03,4.348c-.006,3.475-.012,6.949.009,10.424a5.013,5.013,0,0,0,.242,1.55,4.4,4.4,0,0,0,4.333,3.039c3.475.007,6.951.012,10.426-.009a5.031,5.031,0,0,0,1.551-.24,4.388,4.388,0,0,0,3.044-4.305q.018-5.247,0-10.494a4.4,4.4,0,0,0-1.905-3.74,4.484,4.484,0,0,0-2.713-.817Q-28.736,922.844-31.319,922.841Z" transform="translate(0)" fill="#fff"/>
    <path id="Path_61" data-name="Path 61" d="M92.87,1050.994a6.143,6.143,0,1,1-6.134-6.156A6.167,6.167,0,0,1,92.87,1050.994Zm-6.14-4.037a4.023,4.023,0,1,0,4.021,4.025A4.028,4.028,0,0,0,86.729,1046.957Z" transform="translate(-118.064 -118.336)" fill="#fff"/>
    <path id="Path_62" data-name="Path 62" d="M317.842,1009.658a1.544,1.544,0,1,1,1.54-1.545A1.56,1.56,0,0,1,317.842,1009.658Z" transform="translate(-342.768 -81.852)" fill="#fff"/>
  </g>
</svg>
