<svg xmlns="http://www.w3.org/2000/svg" width="19.215" height="18.373" viewBox="0 0 19.215 18.373">
  <g id="Group_21" data-name="Group 21" transform="translate(-1316.648 -573.816)">
    <path id="Path_33" data-name="Path 33" d="M1321.272,575.813a2.32,2.32,0,1,0-2.351,2.294h.027a2.148,2.148,0,0,0,2.324-2.294Z" fill="#fff" fill-rule="evenodd"/>
    <rect id="Rectangle_58" data-name="Rectangle 58" width="4.118" height="12.39" transform="translate(1316.889 579.799)" fill="#fff"/>
    <path id="Path_34" data-name="Path 34" d="M1446.515,678.389a4.091,4.091,0,0,0-3.713,2.047V678.68h-4.116c.055,1.163,0,12.391,0,12.391h4.116v-6.92a2.822,2.822,0,0,1,.141-1.008,2.255,2.255,0,0,1,2.113-1.5c1.491,0,2.086,1.137,2.086,2.8v6.629h4.12l0-7.1C1451.259,680.16,1449.226,678.389,1446.515,678.389Zm-3.708,2.087h-.027c.007-.013.019-.027.027-.04Z" transform="translate(-115.4 -98.882)" fill="#fff" fill-rule="evenodd"/>
  </g>
</svg>
