<svg xmlns="http://www.w3.org/2000/svg" width="208.256" height="46.136" viewBox="0 0 208.256 46.136">
  <g id="Group_8" data-name="Group 8" transform="translate(1362 155.562)">
    <path id="Path_1" data-name="Path 1" d="M-137.831,60.054a14.146,14.146,0,0,1,14.6-14.536,14.146,14.146,0,0,1,14.6,14.536c0,8.364-6.24,14.473-14.6,14.473S-137.831,68.418-137.831,60.054Zm4.913,0c0,6.772,4.779,10.224,9.691,10.224,4.978,0,9.691-3.517,9.691-10.224,0-6.769-4.648-10.287-9.691-10.287S-132.918,53.35-132.918,60.054Z" transform="translate(-1145.254 -184.04)"/>
    <path id="Path_2" data-name="Path 2" d="M-124.717,46.474h4.782V49.66a9.709,9.709,0,0,1,7.9-3.85,9.349,9.349,0,0,1,7.9,3.782c1.393,2.059,1.592,4.315,1.592,7.368V74.021h-4.779V57.093a8.078,8.078,0,0,0-1.262-5.044,5.4,5.4,0,0,0-4.514-1.993,6.028,6.028,0,0,0-4.844,2.125c-1.86,2.19-1.991,5.445-1.991,7.436v14.4h-4.782Z" transform="translate(-1122.557 -183.535)"/>
    <g id="Group_1" data-name="Group 1" transform="translate(-1181.357 -138.522)">
      <path id="Path_3" data-name="Path 3" d="M-77.744,46.182h4.779V73.729h-4.779v-3.85a11.615,11.615,0,0,1-9.426,4.648c-6.969,0-13.408-4.913-13.408-14.6,0-9.492,6.374-14.4,13.408-14.4A11.4,11.4,0,0,1-77.744,50.1ZM-95.665,59.923c0,5.907,3.318,10.355,9.028,10.355,5.841,0,9.159-4.847,9.159-10.289,0-7.1-4.913-10.221-9.159-10.221C-91.351,49.767-95.665,53.219-95.665,59.923Z" transform="translate(100.578 -45.518)"/>
    </g>
    <g id="Group_2" data-name="Group 2" transform="translate(-1362 -155.437)">
      <path id="Path_4" data-name="Path 4" d="M-113.546,42.15a4.215,4.215,0,0,0-.254-.582h0a4.215,4.215,0,0,0-3.779-2.236,4.214,4.214,0,0,0-3.777,2.236h0a4.211,4.211,0,0,0-.254.582l-7.04,13.233-7.043-13.233a4.218,4.218,0,0,0-.254-.582h0a4.193,4.193,0,0,0-3.209-2.2,4.221,4.221,0,0,0-4.339,2.19l-1.09,2.023.035.066-22.182,41.69h7.094a4.264,4.264,0,0,0,3.76-2.261l16.152-30.36,6.245,11.742-11.106,20.879h7.092a4.261,4.261,0,0,0,3.76-2.261l16.152-30.36,16.152,30.36a4.265,4.265,0,0,0,3.763,2.261h7.092Z" transform="translate(166.73 -39.324)"/>
      <path id="Path_5" data-name="Path 5" d="M-152.04,59.006l4.247,7.982h9.651l-9.079-17.066Z" transform="translate(192.154 -20.98)"/>
    </g>
    <g id="Group_3" data-name="Group 3" transform="translate(-1218.536 -155.562)">
      <path id="Path_6" data-name="Path 6" d="M-109.845,60.419a21.187,21.187,0,0,0,7.335,3.831c1.09.374,2.206.748,3.255,1.174l3.927-7.351c-.811-.306-1.647-.6-2.493-.893-2.774-.991-4.227-1.518-5.284-2.51a3.715,3.715,0,0,1-1.387-2.974c0-2.245,1.453-5.153,6.079-5.153a8.711,8.711,0,0,1,2.911.475,7.69,7.69,0,0,0,8.714-2.5l.068-.09a16.951,16.951,0,0,0-12.488-5.153c-9.776,0-14.137,6.475-14.137,12.949A10.259,10.259,0,0,0-109.845,60.419Z" transform="translate(115.659 -39.278)"/>
      <path id="Path_7" data-name="Path 7" d="M-87.437,48.509a13.221,13.221,0,0,0-2.318-1.663l-4.189,7.848a5.063,5.063,0,0,1,1.42,3.659c0,3.7-2.905,6.079-6.8,6.079a10.351,10.351,0,0,1-5.349-1.537,7.7,7.7,0,0,0-9.391.887l-.126.12A18.14,18.14,0,0,0-99,72.228c9.115,0,15.325-5.882,15.325-14.47A11.987,11.987,0,0,0-87.437,48.509Z" transform="translate(114.193 -26.18)"/>
    </g>
  </g>
</svg>
