<svg xmlns="http://www.w3.org/2000/svg" width="355.926" height="58.49" viewBox="0 0 355.926 58.49">
  <g id="Group_31" data-name="Group 31" transform="translate(443.111 -676.816)">
    <path id="Path_35" data-name="Path 35" d="M-372.987,713.211a12.566,12.566,0,0,1,12.976-12.916,12.566,12.566,0,0,1,12.975,12.916,12.554,12.554,0,0,1-12.975,12.858,12.554,12.554,0,0,1-12.976-12.858m4.365,0c0,6.015,4.246,9.084,8.611,9.084,4.423,0,8.612-3.127,8.612-9.084,0-6.015-4.13-9.143-8.612-9.143s-8.611,3.186-8.611,9.143" fill="#fff"/>
    <path id="Path_36" data-name="Path 36" d="M-341.166,701.592h4.247v2.832A8.632,8.632,0,0,1-329.9,701a8.3,8.3,0,0,1,7.019,3.362c1.237,1.828,1.415,3.832,1.415,6.545v15.161h-4.247V711.029a7.191,7.191,0,0,0-1.121-4.482,4.8,4.8,0,0,0-4.011-1.771,5.353,5.353,0,0,0-4.306,1.887c-1.651,1.949-1.769,4.836-1.769,6.608v12.8h-4.247Z" fill="#fff"/>
    <path id="Path_37" data-name="Path 37" d="M-262.3,700.882h4.247v24.479H-262.3v-3.422a10.323,10.323,0,0,1-8.376,4.13c-6.193,0-11.914-4.365-11.914-12.977,0-8.434,5.664-12.8,11.914-12.8a10.125,10.125,0,0,1,8.376,4.069Zm-15.925,12.21c0,5.251,2.948,9.2,8.022,9.2,5.19,0,8.138-4.3,8.138-9.142,0-6.312-4.365-9.083-8.138-9.083-4.188,0-8.022,3.067-8.022,9.024" fill="#fff"/>
    <path id="Path_38" data-name="Path 38" d="M-395.853,687.776a3.7,3.7,0,0,0-.226-.517,3.743,3.743,0,0,0-3.358-1.987,3.741,3.741,0,0,0-3.355,1.987,3.588,3.588,0,0,0-.226.517l-6.256,11.758-6.258-11.758a3.579,3.579,0,0,0-.225-.517,3.733,3.733,0,0,0-2.851-1.961,3.763,3.763,0,0,0-3.856,1.949l-.968,1.8.031.058-19.71,37.045h6.3a3.791,3.791,0,0,0,3.342-2.007l14.352-26.978,5.552,10.434-9.871,18.551h6.3a3.781,3.781,0,0,0,3.34-2.007l14.353-26.978,14.353,26.978a3.788,3.788,0,0,0,3.343,2.007h6.3Z" fill="#fff"/>
    <path id="Path_39" data-name="Path 39" d="M-407.466,719.053l3.772,7.092h8.579l-8.069-15.162Z" fill="#fff"/>
    <path id="Path_40" data-name="Path 40" d="M-310.464,703.938a18.8,18.8,0,0,0,6.518,3.4c.967.333,1.96.665,2.891,1.044l3.487-6.532c-.718-.272-1.46-.532-2.212-.794-2.466-.878-3.756-1.349-4.7-2.227a3.305,3.305,0,0,1-1.235-2.643c0-2,1.294-4.581,5.4-4.581a7.655,7.655,0,0,1,2.584.425,6.833,6.833,0,0,0,7.743-2.223l.063-.078a15.065,15.065,0,0,0-11.1-4.581c-8.689,0-12.562,5.753-12.562,11.507a9.108,9.108,0,0,0,3.111,7.279" fill="#fff"/>
    <path id="Path_41" data-name="Path 41" d="M-291.856,704.995a11.825,11.825,0,0,0-2.061-1.478l-3.721,6.974a4.5,4.5,0,0,1,1.261,3.251c0,3.286-2.582,5.4-6.044,5.4a9.186,9.186,0,0,1-4.753-1.366,6.845,6.845,0,0,0-8.343.789l-.113.107a16.116,16.116,0,0,0,13.5,7.4c8.1,0,13.617-5.226,13.617-12.858a10.645,10.645,0,0,0-3.346-8.218" fill="#fff"/>
    <path id="Path_42" data-name="Path 42" d="M-191.645,684.205a4.147,4.147,0,0,0-1.012-1.293,3.089,3.089,0,0,0-1.943-.6,2.65,2.65,0,0,0-2.9,2.669,1.808,1.808,0,0,0,.648,1.5,5.688,5.688,0,0,0,1.814,1.09l1.658.725a8.451,8.451,0,0,1,2.672,1.633,4.163,4.163,0,0,1,1.242,3.135,5.187,5.187,0,0,1-5.467,5.314,5.157,5.157,0,0,1-3.759-1.4,6.264,6.264,0,0,1-1.606-3.059l1.866-.52a4.077,4.077,0,0,0,1.036,2.2,3.3,3.3,0,0,0,2.487.961,3.273,3.273,0,0,0,3.473-3.421,2.575,2.575,0,0,0-.854-2.021,7.519,7.519,0,0,0-2.075-1.194l-1.553-.726a7.642,7.642,0,0,1-2.308-1.424,3.586,3.586,0,0,1-1.191-2.824c0-2.672,2.048-4.46,4.845-4.46a4.682,4.682,0,0,1,2.774.779,5.186,5.186,0,0,1,1.684,1.917Z" fill="#fff"/>
    <path id="Path_43" data-name="Path 43" d="M-187.08,692.733a5.522,5.522,0,0,1,5.7-5.676,5.524,5.524,0,0,1,5.7,5.676,5.516,5.516,0,0,1-5.7,5.648,5.515,5.515,0,0,1-5.7-5.648m1.917,0a3.728,3.728,0,0,0,3.785,3.991,3.728,3.728,0,0,0,3.783-3.991,3.72,3.72,0,0,0-3.783-4.016,3.737,3.737,0,0,0-3.785,4.016" fill="#fff"/>
    <path id="Path_44" data-name="Path 44" d="M-170.96,693.589a3.644,3.644,0,0,0,.52,2.3,2.279,2.279,0,0,0,1.892.83,2.274,2.274,0,0,0,1.89-.83,3.65,3.65,0,0,0,.519-2.3v-6.272h1.866v6.478a4.274,4.274,0,0,1-.985,3.242,4.49,4.49,0,0,1-3.29,1.346,4.5,4.5,0,0,1-3.293-1.346,4.286,4.286,0,0,1-.985-3.242v-6.478h1.866Z" fill="#fff"/>
    <path id="Path_45" data-name="Path 45" d="M-160.747,687.316h1.868v1.165a2.985,2.985,0,0,1,2.434-1.422,3.977,3.977,0,0,1,1.66.437l-.881,1.686a1.916,1.916,0,0,0-1.09-.364,1.812,1.812,0,0,0-1.5.675,4.655,4.655,0,0,0-.619,2.9v5.675h-1.868Z" fill="#fff"/>
    <path id="Path_46" data-name="Path 46" d="M-145.273,690.323a4.337,4.337,0,0,0-3.37-1.606,3.741,3.741,0,0,0-3.808,4.016,3.742,3.742,0,0,0,3.783,3.991,4.582,4.582,0,0,0,3.473-1.686v2.23a5.742,5.742,0,0,1-3.422,1.114,5.507,5.507,0,0,1-5.753-5.622,5.557,5.557,0,0,1,5.753-5.7,5.709,5.709,0,0,1,3.344,1.037Z" fill="#fff"/>
    <path id="Path_47" data-name="Path 47" d="M-141.409,681.925a1.329,1.329,0,0,1,1.324,1.322,1.332,1.332,0,0,1-1.324,1.323,1.33,1.33,0,0,1-1.322-1.323,1.327,1.327,0,0,1,1.322-1.322m.933,16.145h-1.869V687.314h1.869Z" fill="#fff"/>
    <path id="Path_48" data-name="Path 48" d="M-136.951,687.316h1.868v1.245a3.782,3.782,0,0,1,3.084-1.5,3.647,3.647,0,0,1,3.084,1.475,4.8,4.8,0,0,1,.621,2.875v6.663h-1.866v-6.609a3.17,3.17,0,0,0-.492-1.97,2.113,2.113,0,0,0-1.762-.777,2.346,2.346,0,0,0-1.892.83,4.522,4.522,0,0,0-.777,2.9v5.624h-1.868Z" fill="#fff"/>
    <path id="Path_49" data-name="Path 49" d="M-116.526,687.316h1.865v10.5a6.751,6.751,0,0,1-1.038,4.222,5.229,5.229,0,0,1-4.3,2,5.326,5.326,0,0,1-3.836-1.451,4.853,4.853,0,0,1-1.4-3.475h1.839a3.382,3.382,0,0,0,.83,2.23,3.325,3.325,0,0,0,2.592,1.039,3.011,3.011,0,0,0,2.85-1.5,5.009,5.009,0,0,0,.6-2.747v-1.556a4.544,4.544,0,0,1-3.683,1.813,5.149,5.149,0,0,1-3.679-1.448,5.829,5.829,0,0,1-1.556-4.252,5.642,5.642,0,0,1,1.556-4.173,5.3,5.3,0,0,1,3.679-1.451,4.481,4.481,0,0,1,3.683,1.788Zm-5.911,2.41a4.1,4.1,0,0,0-1.09,2.955,4.143,4.143,0,0,0,1.221,3.162,3.249,3.249,0,0,0,2.305.881,3.184,3.184,0,0,0,2.359-.908,4.352,4.352,0,0,0,1.218-3.108,4.246,4.246,0,0,0-1.141-3.033,3.442,3.442,0,0,0-2.436-.959,3.33,3.33,0,0,0-2.436,1.01" fill="#fff"/>
    <path id="Path_50" data-name="Path 50" d="M-186.15,715.7a8.528,8.528,0,0,0-2.257-1.606,7.338,7.338,0,0,0-2.979-.673,6.973,6.973,0,0,0-6.947,7.2,6.922,6.922,0,0,0,6.974,7.052,7.184,7.184,0,0,0,3.212-.806,7.865,7.865,0,0,0,2-1.451V727.8a8.992,8.992,0,0,1-5.209,1.687A8.739,8.739,0,0,1-200.3,720.6a8.789,8.789,0,0,1,9.046-8.995,8.139,8.139,0,0,1,5.105,1.711Z" fill="#fff"/>
    <path id="Path_51" data-name="Path 51" d="M-183.763,723.839a5.521,5.521,0,0,1,5.7-5.675,5.523,5.523,0,0,1,5.7,5.675,5.517,5.517,0,0,1-5.7,5.649,5.515,5.515,0,0,1-5.7-5.649m1.917,0a3.73,3.73,0,0,0,3.785,3.992,3.728,3.728,0,0,0,3.782-3.992,3.72,3.72,0,0,0-3.782-4.016,3.737,3.737,0,0,0-3.785,4.016" fill="#fff"/>
    <path id="Path_52" data-name="Path 52" d="M-169.508,718.422h1.869v1.245a3.78,3.78,0,0,1,3.084-1.5,3.647,3.647,0,0,1,3.084,1.475,4.8,4.8,0,0,1,.621,2.875v6.663h-1.866v-6.61a3.182,3.182,0,0,0-.492-1.97,2.115,2.115,0,0,0-1.762-.776,2.343,2.343,0,0,0-1.892.83,4.522,4.522,0,0,0-.777,2.9v5.624h-1.869Z" fill="#fff"/>
    <path id="Path_53" data-name="Path 53" d="M-152.893,720.91a1.647,1.647,0,0,0-1.5-1.087,1.187,1.187,0,0,0-1.293,1.218c0,.777.517,1.01,1.735,1.529a6.51,6.51,0,0,1,2.7,1.657,2.555,2.555,0,0,1,.57,1.738,3.421,3.421,0,0,1-3.708,3.523,3.844,3.844,0,0,1-3.756-2.747l1.607-.672a2.435,2.435,0,0,0,2.175,1.761,1.671,1.671,0,0,0,1.765-1.712c0-1.01-.728-1.345-1.737-1.787a7.027,7.027,0,0,1-2.618-1.579,2.343,2.343,0,0,1-.493-1.585,2.892,2.892,0,0,1,3.137-3,3.1,3.1,0,0,1,2.953,1.944Z" fill="#fff"/>
    <path id="Path_54" data-name="Path 54" d="M-146.335,724.694a3.65,3.65,0,0,0,.519,2.305,2.283,2.283,0,0,0,1.893.83,2.276,2.276,0,0,0,1.89-.83,3.65,3.65,0,0,0,.519-2.305v-6.272h1.866V724.9a4.265,4.265,0,0,1-.985,3.239,4.488,4.488,0,0,1-3.29,1.349,4.493,4.493,0,0,1-3.293-1.349,4.277,4.277,0,0,1-.985-3.239v-6.479h1.866Z" fill="#fff"/>
    <rect id="Rectangle_63" data-name="Rectangle 63" width="1.868" height="18.893" transform="translate(-136.123 710.284)" fill="#fff"/>
    <path id="Path_55" data-name="Path 55" d="M-128.812,720.133v9.046h-1.866v-9.046h-1.141v-1.71h1.141v-3.89h1.866v3.89h1.865v1.71Z" fill="#fff"/>
    <path id="Path_56" data-name="Path 56" d="M-116.943,718.422h1.866v10.757h-1.866v-1.5a4.538,4.538,0,0,1-3.681,1.812c-2.719,0-5.234-1.917-5.234-5.7,0-3.706,2.487-5.623,5.234-5.623a4.448,4.448,0,0,1,3.681,1.787Zm-7,5.365c0,2.3,1.3,4.042,3.526,4.042,2.281,0,3.577-1.89,3.577-4.016a3.642,3.642,0,0,0-3.577-3.991c-1.841,0-3.526,1.347-3.526,3.965" fill="#fff"/>
    <path id="Path_57" data-name="Path 57" d="M-111.55,718.422h1.868v1.245a3.784,3.784,0,0,1,3.084-1.5,3.649,3.649,0,0,1,3.085,1.475,4.8,4.8,0,0,1,.621,2.875v6.663h-1.866v-6.61a3.177,3.177,0,0,0-.493-1.97,2.112,2.112,0,0,0-1.761-.776,2.343,2.343,0,0,0-1.892.83,4.524,4.524,0,0,0-.778,2.9v5.624h-1.868Z" fill="#fff"/>
    <path id="Path_58" data-name="Path 58" d="M-97.449,720.133v9.046h-1.866v-9.046h-1.141v-1.71h1.141v-3.89h1.866v3.89h1.866v1.71Z" fill="#fff"/>
    <path id="Path_59" data-name="Path 59" d="M-89.388,720.91a1.647,1.647,0,0,0-1.5-1.087,1.187,1.187,0,0,0-1.293,1.218c0,.777.517,1.01,1.735,1.529a6.51,6.51,0,0,1,2.7,1.657,2.555,2.555,0,0,1,.57,1.738,3.421,3.421,0,0,1-3.708,3.523,3.844,3.844,0,0,1-3.756-2.747l1.607-.672a2.437,2.437,0,0,0,2.176,1.761,1.671,1.671,0,0,0,1.764-1.712c0-1.01-.727-1.345-1.737-1.787a7.027,7.027,0,0,1-2.618-1.579,2.343,2.343,0,0,1-.493-1.585,2.892,2.892,0,0,1,3.137-3,3.1,3.1,0,0,1,2.953,1.944Z" fill="#fff"/>
    <line id="Line_12" data-name="Line 12" y2="58.49" transform="translate(-229.19 676.817)" fill="#fff"/>
    <rect id="Rectangle_64" data-name="Rectangle 64" width="1" height="58.49" transform="translate(-229.69 676.816)" fill="#fff"/>
  </g>
</svg>
